# xmcd
#
# Track frame offsets: 
#        150
#        22432
#        40819
#        62479
#        77323
#        97636
#        112571
#        130723
#        148065
#        175493
#        194873
#        216167
#
# Disc length: 3208 seconds
#
# Revision: 8
# Processed by: cddbd v1.5.1PL2 Copyright (c) Steve Scherf et al.
# Submitted via: ExactAudioCopy v0.95b3
#
DISCID=a00c860c
DTITLE=Cocco - ??????
DYEAR=2006
DGENRE=JPop
TTITLE0=?????
TTITLE1=????
TTITLE2=??
TTITLE3=Beauty C
TTITLE4=????
TTITLE5=Swinging Night
TTITLE6=??
TTITLE7=???
TTITLE8=????
TTITLE9=????????
TTITLE10=???????????
TTITLE11=Happy Ending
EXTD=YEAR: 2006
EXTT0=
EXTT1=
EXTT2=
EXTT3=
EXTT4=
EXTT5=
EXTT6=
EXTT7=
EXTT8=
EXTT9=
EXTT10=
EXTT11=
PLAYORDER=
